<?xml version="1.0" encoding="utf-8"?>
<svg version="1.1" xmlns:xlink="http://www.w3.org/1999/xlink" width="16px" height="15px" xmlns="http://www.w3.org/2000/svg">
  <g transform="matrix(1 0 0 1 -1205 -166 )">
    <path d="M 1.68421052631579 12.5666666666667  L 9.31368421052632 5.01666666666667  L 10.0884210526316 5.78333333333333  L 2.45894736842105 13.3333333333333  L 1.68421052631579 13.3333333333333  L 1.68421052631579 12.5666666666667  Z M 12.9431578947368 0.241666666666667  C 12.7747368421053 0.0750000000000006  12.5642105263158 0  12.3452631578947 0  C 12.1347368421053 0  11.9157894736842 0.0833333333333334  11.7557894736842 0.241666666666667  L 10.2147368421053 1.76666666666667  L 13.3726315789474 4.89166666666667  L 14.9136842105263 3.36666666666667  C 15.2421052631579 3.04166666666667  15.2421052631579 2.51666666666667  14.9136842105263 2.19166666666667  L 12.9431578947368 0.241666666666667  Z M 12.4715789473684 5.78333333333333  L 9.31368421052632 2.65833333333333  L 0 11.875  L 0 15  L 3.15789473684211 15  L 12.4715789473684 5.78333333333333  Z " fill-rule="nonzero" fill="#000000" stroke="none" transform="matrix(1 0 0 1 1205 166 )" />
  </g>
</svg>