<?xml version="1.0" encoding="utf-8"?>
<svg version="1.1" xmlns:xlink="http://www.w3.org/1999/xlink" width="12px" height="15px" xmlns="http://www.w3.org/2000/svg">
  <g transform="matrix(1 0 0 1 -1197 -166 )">
    <path d="M 2.57142857142857 5  L 9.42857142857143 5  L 9.42857142857143 13.3333333333333  L 2.57142857142857 13.3333333333333  L 2.57142857142857 5  Z M 9 0.833333333333333  L 8.14285714285714 0  L 3.85714285714286 0  L 3 0.833333333333333  L 0 0.833333333333333  L 0 2.5  L 12 2.5  L 12 0.833333333333333  L 9 0.833333333333333  Z M 11 13.3333333333333  L 11 3.33333333333333  L 1 3.33333333333333  L 1 13.3333333333333  C 0.857142857142857 14.25  1.62857142857143 15  2.57142857142857 15  L 9.42857142857143 15  C 10.3714285714286 15  11.1428571428571 14.25  11 13.3333333333333  Z " fill-rule="nonzero" fill="#000000" stroke="none" transform="matrix(1 0 0 1 1197 166 )" />
  </g>
</svg>