<?xml version="1.0" encoding="utf-8"?>
<svg version="1.1" xmlns:xlink="http://www.w3.org/1999/xlink" width="15px" height="15px" xmlns="http://www.w3.org/2000/svg">
  <g transform="matrix(1 0 0 1 -5 -70 )">
    <path d="M 14.3625 9.39  L 12.855 8.205  C 12.885 7.98  12.9 7.7475  12.9 7.5  C 12.9 7.26  12.885 7.02  12.8475 6.795  L 14.37 5.61  C 14.505 5.505  14.5425 5.3025  14.46 5.1525  L 13.02 2.6625  C 12.93 2.4975  12.7425 2.445  12.5775 2.4975  L 10.785 3.2175  C 10.41 2.9325  10.0125 2.6925  9.57 2.5125  L 9.3 0.6075  C 9.27 0.4275  9.12 0.3  8.94 0.3  L 6.06 0.3  C 5.88 0.3  5.7375 0.4275  5.7075 0.6075  L 5.4375 2.5125  C 4.995 2.6925  4.59 2.94  4.2225 3.2175  L 2.43 2.4975  C 2.265 2.4375  2.0775 2.4975  1.9875 2.6625  L 0.555 5.1525  C 0.465 5.31  0.495 5.505  0.645 5.61  L 2.1675 6.795  C 2.13 7.02  2.1 7.2675  2.1 7.5  C 2.1 7.7325  2.115 7.98  2.1525 8.205  L 0.63 9.39  C 0.495 9.495  0.4575 9.6975  0.54 9.8475  L 1.98 12.3375  C 2.07 12.5025  2.2575 12.555  2.4225 12.5025  L 4.215 11.7825  C 4.59 12.0675  4.9875 12.3075  5.43 12.4875  L 5.7 14.3925  C 5.7375 14.5725  5.88 14.7  6.06 14.7  L 8.94 14.7  C 9.12 14.7  9.27 14.5725  9.2925 14.3925  L 9.5625 12.4875  C 10.005 12.3075  10.41 12.0675  10.7775 11.7825  L 12.57 12.5025  C 12.735 12.5625  12.9225 12.5025  13.0125 12.3375  L 14.4525 9.8475  C 14.5425 9.6825  14.505 9.495  14.3625 9.39  Z M 10.2 7.5  C 10.2 8.985  8.985 10.2  7.5 10.2  C 6.015 10.2  4.8 8.985  4.8 7.5  C 4.8 6.015  6.015 4.8  7.5 4.8  C 8.985 4.8  10.2 6.015  10.2 7.5  Z " fill-rule="nonzero" fill="#000000" stroke="none" transform="matrix(1 0 0 1 5 70 )" />
  </g>
</svg>