<?xml version="1.0" encoding="utf-8"?>
<svg version="1.1" xmlns:xlink="http://www.w3.org/1999/xlink" width="14px" height="18px" xmlns="http://www.w3.org/2000/svg">
  <g transform="matrix(1 0 0 1 -1232 -165 )">
    <path d="M 14 14.01  L 11 14.01  L 11 7  L 9 7  L 9 14.01  L 6 14.01  L 10 18  L 14 14.01  Z M 8 3.99  L 4 0  L 0 3.99  L 3 3.99  L 3 11  L 5 11  L 5 3.99  L 8 3.99  Z M 14 14.01  L 11 14.01  L 11 7  L 9 7  L 9 14.01  L 6 14.01  L 10 18  L 14 14.01  Z M 8 3.99  L 4 0  L 0 3.99  L 3 3.99  L 3 11  L 5 11  L 5 3.99  L 8 3.99  Z " fill-rule="nonzero" fill="#000000" stroke="none" transform="matrix(1 0 0 1 1232 165 )" />
  </g>
</svg>